<?xml version="1.0" standalone="no"?>
<!DOCTYPE svg PUBLIC "-//W3C//DTD SVG 20010904//EN"
 "http://www.w3.org/TR/2001/REC-SVG-20010904/DTD/svg10.dtd">
<svg version="1.0" xmlns="http://www.w3.org/2000/svg"
 width="400.000000pt" height="400.000000pt" viewBox="0 0 400.000000 400.000000"
 preserveAspectRatio="xMidYMid meet">
<metadata>
Created by potrace 1.14, written by Peter Selinger 2001-2017
</metadata>
<g transform="translate(0.000000,400.000000) scale(0.100000,-0.100000)"
fill="#000000" stroke="none">
<path d="M171 2009 c0 -786 3 -1429 7 -1430 45 -4 3124 0 3128 4 4 3 7 27 7
53 l0 47 -1504 0 -1504 0 1 1321 c1 727 2 1323 3 1326 0 3 760 5 1689 5 l1687
0 1 -1372 c1 -754 4 -1375 7 -1379 4 -7 52 -9 113 -5 9 1 12 364 10 1429 l-1
1427 -1822 1 -1822 1 0 -1428z"/>
<path d="M562 2795 c-4 -5 -7 -69 -7 -140 l0 -130 261 0 261 0 1 -670 c0 -368
1 -675 1 -680 1 -6 61 -10 159 -10 l157 0 0 670 c-1 368 0 675 2 680 2 7 96
10 263 10 l259 0 -1 133 c-1 78 -5 135 -11 139 -18 11 -1338 9 -1345 -2z"/>
<path d="M2046 2800 c-1 -3 -2 -66 -2 -140 l1 -135 448 0 c246 0 447 -1 447
-3 0 -2 -86 -108 -192 -235 -166 -201 -256 -310 -426 -516 -21 -25 -42 -49
-47 -55 -6 -6 -36 -42 -66 -81 -31 -38 -86 -106 -123 -150 l-67 -80 3 -120 3
-120 648 0 647 0 0 140 0 140 -445 0 c-245 0 -445 4 -445 8 0 4 44 63 98 130
53 67 104 130 112 141 8 10 27 33 41 50 14 17 119 148 233 291 114 143 215
269 224 280 10 11 52 64 95 118 l79 98 -1 102 c0 56 0 111 0 122 -1 20 -8 20
-632 20 -347 0 -632 -2 -633 -5z"/>
</g>
</svg>
